<mxfile host="65bd71144e">
    <diagram id="Izxc_4G5sfgi2cLQVpBg" name="Page-1">
        <mxGraphModel dx="976" dy="757" grid="1" gridSize="10" guides="1" tooltips="1" connect="1" arrows="1" fold="1" page="1" pageScale="1" pageWidth="827" pageHeight="1169" math="0" shadow="0">
            <root>
                <mxCell id="0"/>
                <mxCell id="1" parent="0"/>
                <mxCell id="82" value="&lt;font color=&quot;#fffaf5&quot;&gt;Appli - Trouve ton match&lt;/font&gt;" style="shape=umlFrame;whiteSpace=wrap;html=1;shadow=0;glass=1;fillStyle=auto;strokeColor=#FFFAF5;fillColor=#1C1C1D;opacity=50;swimlaneFillColor=#D4A892;width=100;height=40;" parent="1" vertex="1">
                    <mxGeometry x="180" y="170" width="540" height="800" as="geometry"/>
                </mxCell>
                <mxCell id="3" value="Page - Créer un compte" style="ellipse;whiteSpace=wrap;html=1;fillColor=#1ba1e2;strokeColor=#FFFAF5;fontColor=#ffffff;" parent="1" vertex="1">
                    <mxGeometry x="318" y="300" width="120" height="50" as="geometry"/>
                </mxCell>
                <mxCell id="7" style="edgeStyle=none;html=1;endArrow=block;endFill=0;startSize=16;strokeWidth=1;jumpSize=15;strokeColor=#FFFAF5;" parent="1" source="4" target="6" edge="1">
                    <mxGeometry relative="1" as="geometry"/>
                </mxCell>
                <mxCell id="4" value="&lt;font color=&quot;#fffaf5&quot;&gt;Porteur&lt;/font&gt;" style="shape=umlActor;verticalLabelPosition=bottom;verticalAlign=top;html=1;strokeColor=#FFFAF5;fillColor=default;" parent="1" vertex="1">
                    <mxGeometry x="38" y="420" width="30" height="60" as="geometry"/>
                </mxCell>
                <mxCell id="9" style="edgeStyle=none;html=1;endArrow=block;endFill=0;strokeColor=#FFFAF5;" parent="1" source="5" edge="1">
                    <mxGeometry relative="1" as="geometry">
                        <mxPoint x="78" y="620" as="targetPoint"/>
                    </mxGeometry>
                </mxCell>
                <mxCell id="5" value="&lt;font color=&quot;#fffaf5&quot;&gt;Parrain&lt;/font&gt;" style="shape=umlActor;verticalLabelPosition=bottom;verticalAlign=top;html=1;strokeColor=#FFFAF5;" parent="1" vertex="1">
                    <mxGeometry x="38" y="650" width="30" height="60" as="geometry"/>
                </mxCell>
                <mxCell id="18" style="edgeStyle=none;html=1;entryX=0;entryY=0.5;entryDx=0;entryDy=0;endArrow=openThin;endFill=0;strokeColor=#FFFAF5;" parent="1" source="6" target="3" edge="1">
                    <mxGeometry relative="1" as="geometry"/>
                </mxCell>
                <mxCell id="19" style="edgeStyle=none;html=1;entryX=-0.017;entryY=0.64;entryDx=0;entryDy=0;entryPerimeter=0;endArrow=openThin;endFill=0;strokeColor=#FFFAF5;" parent="1" source="6" target="10" edge="1">
                    <mxGeometry relative="1" as="geometry"/>
                </mxCell>
                <mxCell id="20" style="edgeStyle=none;html=1;entryX=0;entryY=0.5;entryDx=0;entryDy=0;endArrow=openThin;endFill=0;strokeColor=#FFFAF5;" parent="1" source="6" target="11" edge="1">
                    <mxGeometry relative="1" as="geometry"/>
                </mxCell>
                <mxCell id="21" style="edgeStyle=none;html=1;entryX=0;entryY=0.5;entryDx=0;entryDy=0;endArrow=openThin;endFill=0;strokeColor=#FFFAF5;" parent="1" source="6" target="12" edge="1">
                    <mxGeometry relative="1" as="geometry"/>
                </mxCell>
                <mxCell id="22" style="edgeStyle=none;html=1;entryX=0;entryY=0.5;entryDx=0;entryDy=0;endArrow=openThin;endFill=0;strokeColor=#FFFAF5;" parent="1" source="6" target="13" edge="1">
                    <mxGeometry relative="1" as="geometry"/>
                </mxCell>
                <mxCell id="23" style="edgeStyle=none;html=1;entryX=0.017;entryY=0.36;entryDx=0;entryDy=0;entryPerimeter=0;endArrow=openThin;endFill=0;strokeColor=#FFFAF5;" parent="1" source="6" target="14" edge="1">
                    <mxGeometry relative="1" as="geometry"/>
                </mxCell>
                <mxCell id="49" style="edgeStyle=none;jumpSize=15;html=1;entryX=0;entryY=0.5;entryDx=0;entryDy=0;strokeWidth=1;endArrow=classic;endFill=1;startSize=16;strokeColor=#FFFAF5;" parent="1" source="6" target="48" edge="1">
                    <mxGeometry relative="1" as="geometry"/>
                </mxCell>
                <mxCell id="80" style="edgeStyle=none;jumpSize=15;html=1;strokeWidth=1;endArrow=classic;endFill=1;startSize=16;entryX=0.017;entryY=0.8;entryDx=0;entryDy=0;entryPerimeter=0;strokeColor=#FFFAF5;" parent="1" source="6" target="15" edge="1">
                    <mxGeometry relative="1" as="geometry">
                        <mxPoint x="160" y="340" as="targetPoint"/>
                    </mxGeometry>
                </mxCell>
                <mxCell id="6" value="&lt;font color=&quot;#fffaf5&quot;&gt;Utilisateur&lt;/font&gt;" style="shape=umlActor;verticalLabelPosition=bottom;verticalAlign=top;html=1;fillColor=#1C1C1D;strokeColor=#FFFAF5;" parent="1" vertex="1">
                    <mxGeometry x="78" y="540" width="30" height="60" as="geometry"/>
                </mxCell>
                <mxCell id="33" style="edgeStyle=none;jumpSize=15;html=1;entryX=0;entryY=0.5;entryDx=0;entryDy=0;strokeWidth=1;endArrow=classic;endFill=1;startSize=16;strokeColor=#FFFAF5;" parent="1" source="10" target="32" edge="1">
                    <mxGeometry relative="1" as="geometry"/>
                </mxCell>
                <mxCell id="10" value="Page - Profil" style="ellipse;whiteSpace=wrap;html=1;fillColor=#1ba1e2;fontColor=#ffffff;strokeColor=#FFFAF5;" parent="1" vertex="1">
                    <mxGeometry x="318" y="390" width="120" height="50" as="geometry"/>
                </mxCell>
                <mxCell id="40" style="edgeStyle=none;jumpSize=15;html=1;entryX=0;entryY=0.5;entryDx=0;entryDy=0;strokeWidth=1;endArrow=classic;endFill=1;startSize=16;strokeColor=#FFFAF5;" parent="1" source="11" target="39" edge="1">
                    <mxGeometry relative="1" as="geometry"/>
                </mxCell>
                <mxCell id="11" value="Page - Echanges" style="ellipse;whiteSpace=wrap;html=1;fillColor=#1ba1e2;fontColor=#ffffff;strokeColor=#FFFAF5;" parent="1" vertex="1">
                    <mxGeometry x="318" y="545" width="120" height="50" as="geometry"/>
                </mxCell>
                <mxCell id="70" style="edgeStyle=none;jumpSize=15;html=1;entryX=0.5;entryY=1;entryDx=0;entryDy=0;strokeWidth=1;endArrow=classic;endFill=1;startSize=16;strokeColor=#FFFAF5;" parent="1" source="12" target="11" edge="1">
                    <mxGeometry relative="1" as="geometry"/>
                </mxCell>
                <mxCell id="12" value="Navbar - Notifications" style="ellipse;whiteSpace=wrap;html=1;fillColor=#f0a30a;strokeColor=#FFFAF5;fontColor=#000000;" parent="1" vertex="1">
                    <mxGeometry x="318" y="630" width="120" height="50" as="geometry"/>
                </mxCell>
                <mxCell id="42" style="edgeStyle=none;jumpSize=15;html=1;entryX=0;entryY=0.5;entryDx=0;entryDy=0;strokeWidth=1;endArrow=classic;endFill=1;startSize=16;strokeColor=#FFFAF5;" parent="1" source="13" target="41" edge="1">
                    <mxGeometry relative="1" as="geometry"/>
                </mxCell>
                <mxCell id="13" value="Page - Boites à outils" style="ellipse;whiteSpace=wrap;html=1;fillColor=#1ba1e2;fontColor=#ffffff;strokeColor=#FFFAF5;" parent="1" vertex="1">
                    <mxGeometry x="318" y="714.5" width="120" height="50" as="geometry"/>
                </mxCell>
                <mxCell id="67" value="" style="edgeStyle=none;jumpSize=15;html=1;strokeWidth=1;endArrow=classic;endFill=1;startSize=16;strokeColor=#FFFAF5;" parent="1" source="14" target="66" edge="1">
                    <mxGeometry relative="1" as="geometry"/>
                </mxCell>
                <mxCell id="14" value="Page - Matchs" style="ellipse;whiteSpace=wrap;html=1;fillColor=#1ba1e2;fontColor=#ffffff;strokeColor=#FFFAF5;" parent="1" vertex="1">
                    <mxGeometry x="318" y="800" width="120" height="50" as="geometry"/>
                </mxCell>
                <mxCell id="51" style="edgeStyle=none;jumpSize=15;html=1;entryX=0;entryY=0.5;entryDx=0;entryDy=0;strokeWidth=1;endArrow=classic;endFill=1;startSize=16;dashed=1;strokeColor=#FFFAF5;" parent="1" source="15" target="10" edge="1">
                    <mxGeometry relative="1" as="geometry">
                        <Array as="points">
                            <mxPoint x="258" y="225"/>
                            <mxPoint x="258" y="415"/>
                        </Array>
                    </mxGeometry>
                </mxCell>
                <mxCell id="52" style="edgeStyle=none;jumpSize=15;html=1;entryX=0;entryY=0.5;entryDx=0;entryDy=0;dashed=1;strokeWidth=1;endArrow=classic;endFill=1;startSize=16;strokeColor=#FFFAF5;" parent="1" source="15" target="48" edge="1">
                    <mxGeometry relative="1" as="geometry">
                        <Array as="points">
                            <mxPoint x="228" y="225"/>
                            <mxPoint x="228" y="495"/>
                        </Array>
                    </mxGeometry>
                </mxCell>
                <mxCell id="53" style="edgeStyle=none;jumpSize=15;html=1;entryX=0;entryY=0.3;entryDx=0;entryDy=0;entryPerimeter=0;dashed=1;strokeWidth=1;endArrow=classic;endFill=1;startSize=16;strokeColor=#FFFAF5;" parent="1" source="15" target="11" edge="1">
                    <mxGeometry relative="1" as="geometry">
                        <Array as="points">
                            <mxPoint x="228" y="225"/>
                            <mxPoint x="228" y="560"/>
                        </Array>
                    </mxGeometry>
                </mxCell>
                <mxCell id="54" style="edgeStyle=none;jumpSize=15;html=1;entryX=0;entryY=0.5;entryDx=0;entryDy=0;dashed=1;strokeWidth=1;endArrow=classic;endFill=1;startSize=16;strokeColor=#FFFAF5;" parent="1" source="15" target="12" edge="1">
                    <mxGeometry relative="1" as="geometry">
                        <Array as="points">
                            <mxPoint x="228" y="225"/>
                            <mxPoint x="228" y="655"/>
                        </Array>
                    </mxGeometry>
                </mxCell>
                <mxCell id="55" style="edgeStyle=none;jumpSize=15;html=1;entryX=0;entryY=0.5;entryDx=0;entryDy=0;dashed=1;strokeWidth=1;endArrow=classic;endFill=1;startSize=16;strokeColor=#FFFAF5;" parent="1" source="15" target="13" edge="1">
                    <mxGeometry relative="1" as="geometry">
                        <Array as="points">
                            <mxPoint x="228" y="225"/>
                            <mxPoint x="228" y="740"/>
                        </Array>
                    </mxGeometry>
                </mxCell>
                <mxCell id="56" style="edgeStyle=none;jumpSize=15;html=1;entryX=0;entryY=0.5;entryDx=0;entryDy=0;dashed=1;strokeWidth=1;endArrow=classic;endFill=1;startSize=16;strokeColor=#FFFAF5;" parent="1" source="15" target="14" edge="1">
                    <mxGeometry relative="1" as="geometry">
                        <Array as="points">
                            <mxPoint x="228" y="225"/>
                            <mxPoint x="228" y="825"/>
                        </Array>
                    </mxGeometry>
                </mxCell>
                <mxCell id="15" value="Navbar - S'identifier" style="ellipse;whiteSpace=wrap;html=1;fillColor=#f0a30a;fontColor=#000000;strokeColor=#FFFAF5;" parent="1" vertex="1">
                    <mxGeometry x="318" y="200" width="120" height="50" as="geometry"/>
                </mxCell>
                <mxCell id="17" style="edgeStyle=none;html=1;entryX=1;entryY=0.5;entryDx=0;entryDy=0;endArrow=openThin;endFill=0;strokeColor=#FFFAF5;" parent="1" source="16" target="15" edge="1">
                    <mxGeometry relative="1" as="geometry">
                        <Array as="points">
                            <mxPoint x="768" y="225"/>
                        </Array>
                    </mxGeometry>
                </mxCell>
                <mxCell id="35" style="edgeStyle=none;jumpSize=15;html=1;entryX=1;entryY=1;entryDx=0;entryDy=0;strokeWidth=1;endArrow=classic;endFill=1;startSize=16;strokeColor=#FFFAF5;" parent="1" source="16" target="34" edge="1">
                    <mxGeometry relative="1" as="geometry"/>
                </mxCell>
                <mxCell id="44" style="edgeStyle=none;jumpSize=15;html=1;entryX=1;entryY=0.5;entryDx=0;entryDy=0;strokeWidth=1;endArrow=classic;endFill=1;startSize=16;strokeColor=#FFFAF5;" parent="1" source="16" target="43" edge="1">
                    <mxGeometry relative="1" as="geometry">
                        <Array as="points">
                            <mxPoint x="773" y="915"/>
                        </Array>
                    </mxGeometry>
                </mxCell>
                <mxCell id="46" style="edgeStyle=none;jumpSize=15;html=1;entryX=0.5;entryY=0;entryDx=0;entryDy=0;strokeWidth=1;endArrow=classic;endFill=1;startSize=16;strokeColor=#FFFAF5;" parent="1" source="16" target="13" edge="1">
                    <mxGeometry relative="1" as="geometry"/>
                </mxCell>
                <mxCell id="16" value="&lt;font color=&quot;#fffaf5&quot;&gt;Permanent&lt;/font&gt;" style="shape=umlActor;verticalLabelPosition=bottom;verticalAlign=top;html=1;strokeColor=#FFFAF5;" parent="1" vertex="1">
                    <mxGeometry x="758" y="540" width="30" height="60" as="geometry"/>
                </mxCell>
                <mxCell id="32" value="Modifier / compléter" style="ellipse;whiteSpace=wrap;html=1;fillColor=#d80073;fontColor=#ffffff;strokeColor=#FFFAF5;" parent="1" vertex="1">
                    <mxGeometry x="498" y="390" width="120" height="50" as="geometry"/>
                </mxCell>
                <mxCell id="34" value="Code d'accès" style="ellipse;whiteSpace=wrap;html=1;strokeColor=#FFFAF5;" parent="1" vertex="1">
                    <mxGeometry x="548" y="300" width="120" height="50" as="geometry"/>
                </mxCell>
                <mxCell id="36" value="Include" style="endArrow=block;endSize=16;endFill=0;html=1;strokeWidth=1;jumpSize=15;entryX=0.917;entryY=0.9;entryDx=0;entryDy=0;dashed=1;entryPerimeter=0;strokeColor=#FFFAF5;" parent="1" source="34" target="15" edge="1">
                    <mxGeometry width="160" relative="1" as="geometry">
                        <mxPoint x="408" y="470" as="sourcePoint"/>
                        <mxPoint x="568" y="470" as="targetPoint"/>
                    </mxGeometry>
                </mxCell>
                <mxCell id="37" value="Include" style="endArrow=block;endSize=16;endFill=0;html=1;dashed=1;strokeWidth=1;jumpSize=15;exitX=0.5;exitY=1;exitDx=0;exitDy=0;strokeColor=#FFFAF5;" parent="1" source="15" target="3" edge="1">
                    <mxGeometry x="-0.2" y="10" width="160" relative="1" as="geometry">
                        <mxPoint x="408" y="470" as="sourcePoint"/>
                        <mxPoint x="568" y="470" as="targetPoint"/>
                        <mxPoint as="offset"/>
                    </mxGeometry>
                </mxCell>
                <mxCell id="39" value="Lire / Ecrire" style="ellipse;whiteSpace=wrap;html=1;fillColor=#d80073;fontColor=#ffffff;strokeColor=#FFFAF5;" parent="1" vertex="1">
                    <mxGeometry x="498" y="545" width="120" height="50" as="geometry"/>
                </mxCell>
                <mxCell id="41" value="Consulter" style="ellipse;whiteSpace=wrap;html=1;fillColor=#d80073;fontColor=#ffffff;strokeColor=#FFFAF5;" parent="1" vertex="1">
                    <mxGeometry x="498" y="740" width="120" height="50" as="geometry"/>
                </mxCell>
                <mxCell id="43" value="Page - KPI" style="ellipse;whiteSpace=wrap;html=1;fillColor=#1ba1e2;fontColor=#ffffff;strokeColor=#FFFAF5;" parent="1" vertex="1">
                    <mxGeometry x="318" y="890" width="120" height="50" as="geometry"/>
                </mxCell>
                <mxCell id="45" value="Ajouter / modifier" style="ellipse;whiteSpace=wrap;html=1;fillColor=#d80073;fontColor=#ffffff;strokeColor=#FFFAF5;" parent="1" vertex="1">
                    <mxGeometry x="570" y="655" width="120" height="50" as="geometry"/>
                </mxCell>
                <mxCell id="60" style="edgeStyle=none;jumpSize=15;html=1;entryX=0;entryY=0.5;entryDx=0;entryDy=0;strokeWidth=1;endArrow=classic;endFill=1;startSize=16;strokeColor=#FFFAF5;" parent="1" source="48" target="59" edge="1">
                    <mxGeometry relative="1" as="geometry"/>
                </mxCell>
                <mxCell id="48" value="Page - Liste profils" style="ellipse;whiteSpace=wrap;html=1;fillColor=#1ba1e2;fontColor=#ffffff;strokeColor=#FFFAF5;" parent="1" vertex="1">
                    <mxGeometry x="318" y="470" width="120" height="50" as="geometry"/>
                </mxCell>
                <mxCell id="59" value="Consulter / Filtrer" style="ellipse;whiteSpace=wrap;html=1;fillColor=#d80073;fontColor=#ffffff;strokeColor=#FFFAF5;" parent="1" vertex="1">
                    <mxGeometry x="498" y="470" width="120" height="50" as="geometry"/>
                </mxCell>
                <mxCell id="65" value="Extend [être permanent]" style="endArrow=block;endSize=16;endFill=0;html=1;strokeWidth=1;jumpSize=15;entryX=0;entryY=0.5;entryDx=0;entryDy=0;dashed=1;exitX=0.96;exitY=0.29;exitDx=0;exitDy=0;exitPerimeter=0;strokeColor=#FFFAF5;" parent="1" edge="1">
                    <mxGeometry width="160" relative="1" as="geometry">
                        <mxPoint x="435.20000000000005" y="729" as="sourcePoint"/>
                        <mxPoint x="572" y="680" as="targetPoint"/>
                        <Array as="points">
                            <mxPoint x="512" y="700"/>
                        </Array>
                    </mxGeometry>
                </mxCell>
                <mxCell id="68" style="edgeStyle=none;jumpSize=15;html=1;strokeWidth=1;endArrow=classic;endFill=1;startSize=16;exitX=1;exitY=0.5;exitDx=0;exitDy=0;strokeColor=#FFFAF5;" parent="1" source="66" target="16" edge="1">
                    <mxGeometry relative="1" as="geometry"/>
                </mxCell>
                <mxCell id="66" value="Envoyer un mail" style="ellipse;whiteSpace=wrap;html=1;fillColor=#d80073;fontColor=#ffffff;strokeColor=#FFFAF5;" parent="1" vertex="1">
                    <mxGeometry x="498" y="800" width="120" height="50" as="geometry"/>
                </mxCell>
            </root>
        </mxGraphModel>
    </diagram>
</mxfile>